<?xml version="1.0" encoding="UTF-8"?>
<!-- Generated by Pixelmator Pro 2.4.1 -->
<svg width="180" height="180" viewBox="0 0 180 180" xmlns="http://www.w3.org/2000/svg" xmlns:xlink="http://www.w3.org/1999/xlink">
    <linearGradient id="linearGradient1" x1="11" y1="90.5" x2="168" y2="90.5" gradientUnits="userSpaceOnUse">
        <stop offset="0" stop-color="#283e51" stop-opacity="1"/>
        <stop offset="1" stop-color="#4b79a1" stop-opacity="1"/>
    </linearGradient>
    <path id="Path-4" fill="#ff8e00" fill-rule="evenodd" stroke="url(#linearGradient1)" stroke-width="2" stroke-linecap="round" stroke-linejoin="round" d="M 89.5 169 C 46.214161 169 11 133.785843 11 90.5 C 11 47.214172 46.214161 12 89.5 12 C 132.785843 12 168 47.214172 168 90.5 C 168 133.785843 132.785843 169 89.5 169 Z M 89.5 159.1875 C 127.375702 159.1875 158.1875 128.375702 158.1875 90.5 C 158.1875 52.62429 127.375702 21.8125 89.5 21.8125 C 51.624294 21.8125 20.8125 52.62429 20.8125 90.5 C 20.8125 128.375702 51.624294 159.1875 89.5 159.1875 Z M 105.253662 127.820724 C 101.09964 127.820724 97.383217 125.191116 95.990562 121.279053 L 74.474609 60.270348 L 59.717529 97.233315 C 58.965302 99.104301 57.177364 100.3125 55.15625 100.3125 L 35.53125 100.3125 C 32.823391 100.3125 30.625 98.114113 30.625 95.40625 C 30.625 92.698387 32.823391 90.5 35.53125 90.5 L 51.834309 90.5 L 65.390381 56.616211 C 66.383766 54.170273 68.253159 52.269737 70.667152 51.25 C 71.889725 50.74054 73.166595 50.483398 74.474609 50.483398 C 75.743492 50.483398 76.98922 50.715775 78.179848 51.198883 C 80.750359 52.245781 82.770676 54.338768 83.712158 56.948402 L 105.253662 118.008224 L 119.56356 92.965904 C 120.432373 91.448669 122.064598 90.5 123.818192 90.5 L 143.443192 90.5 C 146.150253 90.5 148.349442 92.698387 148.349442 95.40625 C 148.349442 98.114113 146.150253 100.3125 143.443192 100.3125 L 126.667404 100.3125 L 113.775719 122.876144 C 112.604256 124.917221 110.734863 126.461594 108.524498 127.245773 C 107.471214 127.625076 106.364433 127.820724 105.253662 127.820724 Z"/>
</svg>
